<svg width="19" height="11" viewBox="0 0 19 11" fill="none" xmlns="http://www.w3.org/2000/svg">
<path d="M5.37278 3.8247C5.37278 4.04112 5.39802 4.21657 5.44203 4.34524C5.4979 4.48999 5.56518 4.63072 5.64331 4.76628C5.67478 4.81306 5.68732 4.85984 5.68732 4.90082C5.68732 4.95925 5.64962 5.01776 5.56783 5.07626L5.1715 5.32187C5.11487 5.35698 5.05824 5.37451 5.00785 5.37451C4.94498 5.37451 4.88205 5.34525 4.81911 5.29261C4.73435 5.20793 4.65852 5.11589 4.59267 5.01776C4.52973 4.91841 4.46679 4.8072 4.39762 4.67273C3.90689 5.21072 3.29028 5.47978 2.54794 5.47978C2.0195 5.47978 1.59794 5.33939 1.28964 5.05874C0.981407 4.77794 0.824137 4.40367 0.824137 3.93585C0.824137 3.43877 1.01288 3.03524 1.39666 2.73113C1.78037 2.42702 2.29003 2.27497 2.93804 2.27497C3.15193 2.27497 3.37214 2.29249 3.60489 2.32174C3.83772 2.35099 4.07677 2.39777 4.32845 2.45041V2.0235C4.32845 1.57899 4.22773 1.26908 4.03269 1.08778C3.83141 0.90647 3.49163 0.818714 3.00721 0.818714C2.787 0.818714 2.56056 0.842171 2.32773 0.89481C2.09498 0.947381 1.86847 1.01175 1.64826 1.09364C1.54762 1.13455 1.47214 1.15794 1.42805 1.16967C1.38404 1.1814 1.35257 1.18719 1.32741 1.18719C1.23932 1.18719 1.1953 1.12869 1.1953 1.00589V0.719298C1.1953 0.625747 1.20792 0.555584 1.23932 0.514672C1.27079 0.473692 1.32741 0.432781 1.41551 0.391869C1.63572 0.28659 1.89994 0.198834 2.20817 0.12867C2.51655 0.0526426 2.8437 0.0175954 3.18971 0.0175954C3.93843 0.0175954 4.48579 0.175446 4.83811 0.491285C5.18412 0.807054 5.36031 1.28661 5.36031 1.92994V3.8247H5.37278ZM2.81847 4.71364C3.02613 4.71364 3.24003 4.6786 3.46647 4.60837C3.69299 4.5382 3.89434 4.40953 4.06416 4.23409C4.16487 4.12302 4.24035 4.00021 4.27805 3.85982C4.31583 3.71949 4.34099 3.54984 4.34099 3.35101V3.10541C4.1502 3.06224 3.95695 3.02905 3.76216 3.00599C3.56602 2.98283 3.36851 2.9711 3.17079 2.97087C2.74922 2.97087 2.44099 3.0469 2.2334 3.20482C2.02574 3.36274 1.9251 3.58496 1.9251 3.87734C1.9251 4.1522 2.00058 4.35689 2.15785 4.49729C2.30888 4.64348 2.52909 4.71364 2.81847 4.71364ZM7.87047 5.34525C7.75721 5.34525 7.68173 5.32773 7.63141 5.28675C7.58109 5.2517 7.537 5.16981 7.4993 5.05874L6.02086 0.53806C5.98301 0.421052 5.96416 0.345025 5.96416 0.304113C5.96416 0.210562 6.01448 0.157853 6.11519 0.157853H6.73173C6.85122 0.157853 6.93308 0.175446 6.97709 0.216357C7.02741 0.251473 7.06519 0.333365 7.1029 0.44444L8.15984 4.31598L9.14131 0.44444C9.17278 0.327501 9.21056 0.251473 9.26081 0.216357C9.3112 0.18131 9.3993 0.157922 9.51256 0.157922H10.0158C10.1353 0.157922 10.2172 0.175446 10.2674 0.216357C10.3178 0.251473 10.3618 0.333365 10.387 0.44444L11.3811 4.36276L12.4694 0.44444C12.5071 0.327501 12.5512 0.251473 12.5952 0.216357C12.6456 0.18131 12.7273 0.157922 12.8406 0.157922H13.4257C13.5264 0.157922 13.583 0.204698 13.583 0.304113C13.583 0.333365 13.5767 0.362617 13.5704 0.397664C13.5641 0.432781 13.5515 0.479556 13.5264 0.543924L12.0101 5.06453C11.9724 5.18154 11.9284 5.25757 11.878 5.29261C11.8277 5.32773 11.7459 5.35112 11.639 5.35112H11.0979C10.9784 5.35112 10.8966 5.33359 10.8462 5.29261C10.7959 5.2517 10.7519 5.17567 10.7267 5.05874L9.75147 1.28661L8.78261 5.0528C8.75122 5.16981 8.71344 5.24584 8.66312 5.28675C8.6128 5.32773 8.5247 5.34525 8.41152 5.34525H7.87047ZM15.9549 5.50317C15.6277 5.50317 15.3006 5.46806 14.986 5.39789C14.6714 5.32773 14.4261 5.25163 14.2626 5.16401C14.1618 5.11131 14.0926 5.05287 14.0675 5.00023C14.043 4.94861 14.0301 4.89287 14.0297 4.83645V4.5382C14.0297 4.4154 14.0801 4.35689 14.1745 4.35689C14.213 4.35703 14.2512 4.36297 14.2877 4.37449C14.3254 4.38622 14.382 4.40953 14.445 4.43292C14.6672 4.52378 14.8992 4.59239 15.137 4.63762C15.3834 4.68411 15.6343 4.70761 15.8857 4.70778C16.282 4.70778 16.5904 4.64348 16.8043 4.51481C17.0181 4.38615 17.1314 4.19904 17.1314 3.95923C17.1314 3.79552 17.0748 3.66099 16.9615 3.54984C16.8483 3.43877 16.6344 3.33935 16.3261 3.24573L15.4138 2.9826C14.9546 2.84807 14.6149 2.64924 14.4072 2.38604C14.1996 2.12871 14.0927 1.84219 14.0927 1.53808C14.0927 1.29247 14.1493 1.07605 14.2626 0.888877C14.3757 0.701775 14.5268 0.53806 14.7155 0.409393C14.9043 0.274861 15.1181 0.175446 15.3698 0.105282C15.6214 0.035119 15.8856 0.005867 16.1625 0.005867C16.3009 0.005867 16.4456 0.0117312 16.584 0.0292548C16.7288 0.0467784 16.8609 0.0701662 16.993 0.093554C17.1188 0.122806 17.2384 0.152058 17.3516 0.187174C17.4649 0.222221 17.5529 0.257338 17.6158 0.292385C17.7039 0.339229 17.7668 0.386005 17.8046 0.438645C17.8423 0.48542 17.8612 0.54972 17.8612 0.631611V0.90647C17.8612 1.02927 17.8109 1.09364 17.7165 1.09364C17.6662 1.09364 17.5844 1.07018 17.4775 1.02341C17.1188 0.871354 16.7162 0.795326 16.2695 0.795326C15.9109 0.795326 15.6277 0.847966 15.4327 0.95911C15.2377 1.07018 15.137 1.23983 15.137 1.47957C15.137 1.64336 15.1999 1.78368 15.3257 1.89483C15.4516 2.0059 15.6844 2.11705 16.0178 2.21646L16.9112 2.47966C17.3642 2.61419 17.6913 2.8013 17.8864 3.04104C18.0814 3.28085 18.1758 3.55571 18.1758 3.85982C18.1758 4.11129 18.1191 4.33937 18.0122 4.5382C17.899 4.73703 17.7479 4.91248 17.5529 5.05287C17.3578 5.19906 17.1251 5.30434 16.8546 5.38037C16.5714 5.46226 16.2757 5.50317 15.9549 5.50317Z" fill="#FFFFFF"/>
<path d="M17.1439 8.34538C15.0741 9.76651 12.0668 10.5209 9.48109 10.5209C5.85721 10.5209 2.59203 9.27523 0.125813 7.20496C-0.0692342 7.04125 0.106887 6.81903 0.339637 6.94763C3.00721 8.38636 6.29762 9.25771 9.70129 9.25771C11.9976 9.25771 14.5205 8.81327 16.842 7.90094C17.188 7.75468 17.4837 8.1115 17.1439 8.34538ZM18.0059 7.43304C17.7417 7.11728 16.2569 7.28099 15.5837 7.35702C15.3824 7.38047 15.3509 7.21669 15.5334 7.09389C16.7162 6.32188 18.6602 6.54417 18.8867 6.80144C19.1132 7.06464 18.8237 8.87171 17.7165 9.73726C17.5467 9.87179 17.3831 9.80163 17.4586 9.62619C17.7102 9.04715 18.2701 7.74302 18.0059 7.43304Z" fill="#FF9900"/>
</svg>
