<svg width="20" height="24" viewBox="0 0 20 24" fill="none" xmlns="http://www.w3.org/2000/svg">
<path d="M18.4075 2.98633L5.17894 0.650391C4.75458 0.575713 4.31792 0.672638 3.965 0.919852C3.61209 1.16707 3.3718 1.54433 3.29699 1.96867L0.275507 19.1327C0.238551 19.343 0.243393 19.5585 0.289754 19.7669C0.336116 19.9753 0.423089 20.1725 0.545703 20.3473C0.668318 20.5221 0.824171 20.671 1.00435 20.7855C1.18454 20.9 1.38552 20.9779 1.59582 21.0147L14.8243 23.3506C15.0347 23.3877 15.2503 23.383 15.4588 23.3367C15.6673 23.2904 15.8647 23.2035 16.0395 23.0808C16.2144 22.9582 16.3634 22.8023 16.478 22.6221C16.5926 22.4418 16.6705 22.2407 16.7073 22.0303L19.7288 4.86625C19.8028 4.44175 19.7052 4.00522 19.4574 3.65268C19.2096 3.30014 18.8319 3.06045 18.4075 2.98633ZM15.1046 21.75L1.87512 19.4141L4.8966 2.25L18.1251 4.58594L15.1046 21.75ZM6.07371 4.93328C6.11135 4.72119 6.23166 4.53273 6.40821 4.40931C6.58475 4.2859 6.80308 4.23765 7.0152 4.27516L15.4449 5.76305C15.6452 5.79814 15.8251 5.9071 15.949 6.0684C16.0729 6.22969 16.1318 6.43159 16.1141 6.63421C16.0964 6.83683 16.0033 7.02542 15.8532 7.16274C15.7032 7.30006 15.5071 7.3761 15.3037 7.37586C15.2561 7.3758 15.2085 7.37172 15.1615 7.36367L6.73184 5.87477C6.51974 5.83713 6.33128 5.71681 6.20787 5.54027C6.08446 5.36372 6.0362 5.14539 6.07371 4.93328ZM5.51105 8.13453C5.52957 8.02942 5.56862 7.92899 5.62596 7.83898C5.6833 7.74896 5.75781 7.67113 5.84524 7.60992C5.93267 7.54871 6.03131 7.50532 6.13551 7.48224C6.23971 7.45916 6.34744 7.45683 6.45254 7.47539L14.8822 8.9643C15.084 8.99804 15.2656 9.10664 15.3908 9.26841C15.516 9.43018 15.5755 9.63321 15.5576 9.83698C15.5396 10.0407 15.4455 10.2302 15.2939 10.3676C15.1424 10.505 14.9446 10.5802 14.74 10.5781C14.692 10.5782 14.6441 10.5738 14.5968 10.5649L6.16715 9.07703C5.95522 9.03893 5.76708 8.91827 5.64406 8.74155C5.52105 8.56483 5.47321 8.3465 5.51105 8.13453ZM4.94738 11.3348C4.98572 11.1232 5.10634 10.9355 5.2828 10.8127C5.45927 10.69 5.6772 10.6421 5.88887 10.6797L10.1017 11.4201C10.3019 11.4552 10.4818 11.564 10.6057 11.7252C10.7296 11.8864 10.7885 12.0882 10.7709 12.2907C10.7533 12.4933 10.6604 12.6819 10.5106 12.8193C10.3607 12.9567 10.1648 13.0329 9.96152 13.0329C9.91387 13.0329 9.8663 13.0288 9.81934 13.0207L5.60449 12.2763C5.39259 12.2384 5.20437 12.118 5.08117 11.9414C4.95797 11.7649 4.90985 11.5467 4.94738 11.3348Z" fill="black"/>
</svg>
