<svg width="19" height="14" viewBox="0 0 19 14" fill="none" xmlns="http://www.w3.org/2000/svg">
<path d="M18.6078 5.33491C18.1799 5.03221 17.1994 4.91869 16.4329 5.07004C16.3438 4.31329 15.9338 3.6512 15.2207 3.06471L14.8107 2.76201L14.5254 3.19715C14.1689 3.76471 13.9907 4.55931 14.0441 5.31606C14.0619 5.58085 14.151 6.05383 14.4185 6.47004C14.1689 6.62139 13.6519 6.81058 12.9745 6.81058H0.0857025L0.0500775 6.96194C-0.0747585 7.71862 -0.0747585 10.0834 1.38705 11.8995C2.49232 13.2806 4.13241 13.9806 6.28943 13.9806C10.96 13.9806 14.4185 11.6914 16.0407 7.54835C16.6825 7.56727 18.0552 7.54835 18.7505 6.12943C18.7683 6.09159 18.8039 6.01591 18.9287 5.73221L19 5.58085L18.6078 5.33491ZM10.3896 0H8.42871V1.89182H10.3896V0ZM10.3896 2.27019H8.42871V4.16201H10.3896V2.27012V2.27019ZM8.07209 2.27019H6.11123V4.16201H8.07209V2.27012V2.27019ZM5.75461 2.27019H3.79367V4.16201H5.75461V2.27012V2.27019ZM3.43712 4.54039H1.47619V6.43221H3.43705V4.54031L3.43712 4.54039ZM5.75461 4.54039H3.79367V6.43221H5.75461V4.54039ZM8.07209 4.54039H6.11123V6.43221H8.07209V4.54039ZM10.3896 4.54039H8.42863V6.43221H10.3896V4.54039ZM12.7071 4.54039H10.7461V6.43221H12.7071V4.54039Z" fill="#2396ED"/>
</svg>
