<svg width="16" height="16" viewBox="0 0 16 16" fill="none" xmlns="http://www.w3.org/2000/svg">
<path d="M15.6982 7.28736L8.71237 0.301725C8.31033 -0.100575 7.65784 -0.100575 7.25516 0.301725L5.80467 1.75249L7.64478 3.59263C8.07255 3.44826 8.56281 3.5451 8.90363 3.88593C9.24623 4.22891 9.34231 4.72336 9.19439 5.15253L10.9678 6.92612C11.3969 6.77821 11.8921 6.87377 12.2345 7.21701C12.7137 7.69574 12.7137 8.47182 12.2345 8.95081C12.1207 9.06472 11.9855 9.15508 11.8367 9.21673C11.6879 9.27838 11.5285 9.31011 11.3674 9.31011C11.2064 9.31011 11.0469 9.27838 10.8981 9.21673C10.7493 9.15508 10.6141 9.06472 10.5003 8.95081C10.3292 8.77964 10.2126 8.5617 10.1651 8.32441C10.1177 8.08712 10.1414 7.84109 10.2335 7.61728L8.57967 5.96346L8.57941 10.3161C8.6994 10.3752 8.80896 10.4535 8.90376 10.5478C9.38261 11.0266 9.38261 11.8024 8.90376 12.2821C8.42478 12.7609 7.64846 12.7609 7.16999 12.2821C6.69113 11.8025 6.69113 11.0267 7.16999 10.5478C7.28471 10.4329 7.42117 10.342 7.57139 10.2804V5.88742C7.42104 5.82597 7.28455 5.73498 7.16999 5.61985C6.80724 5.25735 6.71991 4.725 6.90597 4.27935L5.09184 2.4652L0.301811 7.25503C0.108561 7.44835 0 7.7105 0 7.98384C0 8.25718 0.108561 8.51933 0.301811 8.71265L7.28773 15.6983C7.69003 16.1006 8.34227 16.1006 8.7452 15.6983L15.6983 8.74509C15.8915 8.55173 16 8.28955 16 8.0162C16 7.74285 15.8914 7.48069 15.6982 7.28736Z" fill="#F34F29"/>
</svg>
