<svg width="352" height="511" viewBox="0 0 352 511" fill="none" xmlns="http://www.w3.org/2000/svg">
<path fill-rule="evenodd" clip-rule="evenodd" d="M109.165 9V408.232L352 408.232L261.368 497.032C257.887 500.62 253.748 504.609 247.812 507.324C241.792 510.077 235.073 511.03 226.973 510.999H129.959C116.604 510.999 104.631 507.368 96.1817 498.27C87.893 489.346 84.9219 477.21 84.9064 464.337L84.9064 432.481H44.9584H44.9402C31.5933 432.461 19.6359 428.802 11.2095 419.68C2.94892 410.738 3.85586e-05 398.595 3.85586e-05 385.716L0 126.201C0 113.674 4.46053 101.143 18.4607 88.9084C18.4676 88.9023 18.4746 88.8962 18.4816 88.8901L109.165 9ZM44.9766 408.232H84.9064V62.6937L34.4621 107.134L34.4422 107.151C25.5699 114.899 24.259 120.836 24.259 126.201L24.259 385.716C24.259 395.322 26.494 400.482 29.0326 403.231C31.4054 405.799 35.8624 408.219 44.9766 408.232ZM109.165 432.481L109.165 464.308C109.165 464.31 109.165 464.313 109.165 464.315C109.178 473.897 111.419 479.036 113.961 481.772C116.342 484.336 120.817 486.751 129.959 486.751H227.019L227.044 486.751C233.337 486.776 236.139 485.996 237.719 485.274C239.326 484.539 240.844 483.36 244.051 480.05L244.161 479.936L292.596 432.481L109.165 432.481Z" fill="white"/>
<path d="M194.34 19.3662C194.233 19.4406 194.018 19.5595 193.737 19.7811C193.465 19.9923 193.114 20.2167 192.683 20.4544C192.281 20.6709 191.8 20.9006 191.259 21.1228C190.698 21.3457 190.134 21.5188 189.479 21.6555C188.854 21.781 188.185 21.8282 187.464 21.8274C186.743 21.8167 186.008 21.6965 185.288 21.4655C184.61 21.2729 184.068 20.9947 183.634 20.652C183.23 20.3381 182.914 19.9506 182.737 19.5275C182.568 19.064 182.499 18.5964 182.558 18.0836C182.618 17.5707 182.777 17.0638 183.075 16.5113C183.373 15.9687 183.735 15.5137 184.169 15.1057C184.593 14.6982 185.08 14.3681 185.579 14.1076C186.07 13.8775 186.605 13.7356 187.152 13.6434C187.661 13.6027 188.163 13.6423 188.669 13.7919C189.025 13.9176 189.331 14.0652 189.56 14.2761C189.797 14.4666 189.977 14.6995 190.106 14.9145C190.236 15.1694 190.296 15.4072 190.296 15.6474C190.336 15.8859 190.285 16.1282 190.203 16.3217C190.081 16.5068 189.978 16.6911 189.843 16.8267C189.71 17.0023 189.555 17.1087 189.36 17.2367C189.223 17.3123 189.085 17.3779 188.907 17.4352C188.739 17.4721 188.608 17.4574 188.476 17.4027C188.294 17.3601 188.18 17.2646 188.103 17.0976C188.038 16.9901 188.042 16.8299 188.107 16.6971C188.153 16.6152 188.181 16.564 188.24 16.5216C188.328 16.4879 188.377 16.4559 188.455 16.4027C188.524 16.3799 188.611 16.2963 188.678 16.2335C188.775 16.1495 188.881 16.0551 188.945 15.9124C189.028 15.7289 188.98 15.5307 188.841 15.3062C188.722 15.0808 188.474 14.9107 188.16 14.8134C187.816 14.7273 187.495 14.7103 187.138 14.7749C186.789 14.8091 186.424 14.954 186.092 15.1377C185.749 15.3317 185.418 15.5653 185.111 15.8781C184.803 16.1708 184.567 16.5207 184.351 16.8898C184.177 17.2772 184.051 17.6326 184.006 17.9847C183.94 18.3377 183.944 18.6878 184.047 19.0139C184.14 19.3303 184.362 19.6116 184.623 19.8712C184.873 20.1212 185.252 20.346 185.739 20.4864C186.387 20.6702 186.981 20.7762 187.582 20.7718C188.192 20.757 188.769 20.6935 189.325 20.5609C189.89 20.4478 190.413 20.2664 190.896 20.0666C191.348 19.8581 191.779 19.6304 192.141 19.4256C192.492 19.2111 192.775 19.0295 192.989 18.8807C193.212 18.7015 193.368 18.605 193.436 18.5422C193.513 18.479 193.602 18.4354 193.721 18.4106C193.85 18.3853 193.981 18.42 194.093 18.4555C194.296 18.5173 194.41 18.6128 194.456 18.761C194.541 18.8977 194.557 19.0471 194.493 19.1799C194.475 19.2406 194.408 19.3034 194.34 19.3662ZM203.142 5.19711C202.59 6.63072 201.551 7.67375 199.995 8.28745C199.818 8.3647 199.667 8.35081 199.516 8.31694C199.343 8.2539 199.239 8.15804 199.163 8.00101C199.087 7.86397 199.101 7.71328 199.146 7.58136C199.199 7.42905 199.306 7.33465 199.463 7.26821C200.694 6.77781 201.521 5.94355 201.945 4.80539C202.01 4.67266 202.114 4.5383 202.252 4.48265C202.43 4.42539 202.571 4.43969 202.742 4.47275C202.904 4.51621 203.018 4.60167 203.093 4.73871C203.18 4.89533 203.205 5.02441 203.142 5.19711ZM199.639 23.6546C199.772 23.9794 199.955 24.3023 200.257 24.5803C200.567 24.8279 200.967 25.0618 201.505 25.2501C202.033 25.4288 202.576 25.4968 203.083 25.4262C203.602 25.3851 204.097 25.2449 204.608 25.0139C205.111 24.8234 205.561 24.5749 206.008 24.2465C206.455 23.928 206.893 23.62 207.29 23.2736C207.356 23.1908 207.465 23.1564 207.574 23.122C207.723 23.1159 207.824 23.1218 207.946 23.1769C208.118 23.2199 208.242 23.325 208.32 23.502C208.375 23.6298 208.391 23.7693 208.335 23.8817C208.327 23.932 208.29 23.9936 208.28 24.004C208.241 24.0256 208.222 24.0664 208.194 24.0976C206.925 25.1499 205.723 25.8593 204.538 26.2378C203.392 26.6046 202.251 26.611 201.114 26.2268C200.374 25.9867 199.8 25.6597 199.354 25.2675C198.938 24.8841 198.62 24.4466 198.401 23.9851C198.242 23.5212 198.142 23.0348 198.171 22.5132C198.201 22.0116 198.332 21.5459 198.504 21.0886C198.716 20.6496 198.959 20.2294 199.266 19.8966C199.563 19.5843 199.902 19.3003 200.294 19.0942C200.666 18.8989 201.052 18.7732 201.46 18.7366C201.9 18.7087 202.332 18.7612 202.738 18.8948C202.981 18.975 203.197 19.1064 203.394 19.2785C203.621 19.4394 203.769 19.6436 203.898 19.8685C204.037 20.0731 204.128 20.3396 204.148 20.599C204.159 20.8687 204.11 21.131 204.001 21.4056C203.856 21.7718 203.619 22.1117 203.369 22.362C203.049 22.6152 202.739 22.8581 202.345 23.0242C201.973 23.2195 201.529 23.3676 201.073 23.4762C200.606 23.5752 200.138 23.6343 199.639 23.6546ZM199.517 22.6187C199.897 22.6332 200.256 22.5887 200.613 22.5141C200.97 22.4295 201.286 22.3266 201.58 22.1745C201.853 22.0033 202.097 21.8433 202.3 21.6749C202.521 21.4457 202.663 21.2298 202.774 21.0051C202.882 20.7105 202.873 20.5007 202.766 20.3149C202.698 20.1275 202.531 19.9641 202.308 19.8831C202.014 19.805 201.753 19.7755 201.476 19.8469C201.228 19.917 200.962 20.0278 200.749 20.1867C200.536 20.3754 200.324 20.5742 200.163 20.8009C199.983 21.0385 199.843 21.3043 199.733 21.549C199.68 21.7113 199.617 21.894 199.564 22.0663C199.523 22.2782 199.54 22.4576 199.517 22.6187ZM209.385 23.1184C209.28 23.2528 209.124 23.3592 208.97 23.4956C208.807 23.6623 208.632 23.7895 208.427 23.938C208.283 24.0739 208.116 24.1608 207.988 24.216C207.84 24.2521 207.72 24.257 207.547 24.1839C207.364 24.1113 207.22 24.0271 207.165 23.9092C207.098 23.7418 207.105 23.6514 207.129 23.5103C207.158 23.4791 207.196 23.4375 207.195 23.4176C207.213 23.3668 207.272 23.3444 207.339 23.2716C207.786 22.9232 208.174 22.6172 208.422 22.3269C208.702 22.0653 208.958 21.7346 209.186 21.4151C209.186 21.1749 209.228 20.973 209.241 20.8123C209.245 20.672 209.319 20.5089 209.374 20.3766C209.502 20.0812 209.672 19.844 209.888 19.7252C210.112 19.586 210.362 19.5758 210.625 19.6552C210.87 19.7553 211.006 19.8999 211.076 20.1573C211.175 20.3735 211.136 20.6353 211.025 20.8799C210.981 21.0219 210.906 21.155 210.832 21.2981C210.738 21.4421 210.624 21.5868 210.492 21.7924C210.516 22.3919 210.578 22.9298 210.658 23.407C210.768 23.8929 210.836 24.3505 210.901 24.7182C210.967 25.0958 211.002 25.4647 210.995 25.7852C211.018 26.1146 210.97 26.4168 210.862 26.7114C210.716 27.0676 210.489 27.3871 210.17 27.6503C209.86 27.9131 209.467 28.0992 208.95 28.1702C208.981 28.209 209.051 28.1962 209.112 28.2337C209.163 28.2516 209.224 28.2692 209.264 28.2776C209.874 28.513 210.468 28.5989 211.067 28.5546C211.686 28.5094 212.252 28.4163 212.784 28.2046C213.356 27.9812 213.865 27.7203 214.363 27.4098C214.861 27.0893 215.307 26.7309 215.703 26.3846C215.877 26.2274 216.075 26.1893 216.267 26.2315C216.451 26.3241 216.545 26.4104 216.611 26.5678C216.676 26.6853 216.671 26.8256 216.628 26.9775C216.609 27.0183 216.543 27.101 216.504 27.1426C216.302 27.331 216.04 27.5518 215.73 27.7946C215.449 28.0162 215.088 28.2411 214.706 28.4667C214.334 28.662 213.913 28.8893 213.47 29.0674C212.996 29.2368 212.52 29.3462 212.014 29.4569C211.497 29.5379 210.977 29.5391 210.405 29.4923C209.863 29.4742 209.258 29.3487 208.679 29.142C207.958 28.8811 207.322 28.5166 206.774 28.0785C206.248 27.6896 205.866 27.1646 205.672 26.562C205.627 26.4537 205.624 26.3838 205.67 26.2818C205.705 26.1603 205.8 26.0364 205.969 25.9995C206.118 25.9634 206.298 25.9561 206.479 25.9788C206.642 26.0622 206.756 26.1577 206.842 26.2943C206.843 26.3243 206.895 26.3622 206.927 26.4109C206.97 26.4892 207.033 26.5568 207.085 26.6247C207.19 26.7305 207.283 26.8068 207.376 26.8731C207.499 26.9481 207.632 27.0328 207.754 27.0779C207.998 27.1581 208.229 27.1787 208.459 27.1694C208.668 27.1408 208.856 27.0932 209.003 27.0071C209.139 26.9215 209.295 26.8151 209.38 26.6816C209.505 26.5664 209.559 26.424 209.595 26.3125C209.707 26.1178 209.747 25.876 209.737 25.6262C209.736 25.366 209.716 25.0966 209.685 24.8476C209.644 24.5691 209.572 24.2818 209.511 23.994C209.46 23.7259 209.407 23.4177 209.385 23.1184ZM231.941 22.0617C231.887 22.214 231.781 22.3084 231.632 22.3544C231.453 22.3817 231.323 22.367 231.149 22.294C228.504 21.2305 225.888 20.1458 223.253 19.092C223.215 19.1336 223.207 19.1839 223.188 19.2147C222.962 19.8044 222.685 20.3761 222.337 20.9407C222.001 21.5448 221.625 22.1206 221.207 22.688C220.809 23.2346 220.38 23.7525 219.94 24.2508C219.51 24.7686 219.108 25.2253 218.684 25.6229C218.29 26.0092 217.893 26.3556 217.575 26.6488C217.186 26.9248 216.914 27.126 216.687 27.2153C216.656 27.6869 216.694 28.1157 216.732 28.5546C216.808 28.9618 216.903 29.3282 217.028 29.6935C217.162 30.0283 217.354 30.3308 217.564 30.5724C217.776 30.8441 218.052 31.003 218.347 31.1211C218.705 31.2967 219.136 31.3092 219.591 31.1806C220.037 31.0724 220.5 30.8935 220.941 30.6654C221.382 30.4473 221.772 30.1812 222.162 29.9352C222.552 29.6692 222.822 29.428 223.035 29.2492C223.198 29.0724 223.427 29.0431 223.692 29.1624C223.865 29.2355 223.989 29.3205 224.055 29.478C224.112 29.6358 224.138 29.7849 224.093 29.9068C224.055 29.9684 224.027 30.0095 223.969 30.0619C223.921 30.1239 223.785 30.2095 223.561 30.3787C223.369 30.5667 223.136 30.7563 222.814 30.9496C222.523 31.1816 222.171 31.386 221.8 31.6013C221.418 31.817 221.024 31.9831 220.62 32.1196C220.205 32.2566 219.787 32.3136 219.328 32.3623C218.92 32.3989 218.496 32.326 218.079 32.1628C217.348 31.8923 216.778 31.425 216.334 30.8326C215.899 30.2198 215.629 29.5001 215.494 28.6249C215.358 27.7597 215.369 26.7984 215.556 25.74C215.713 24.6627 216.048 23.5582 216.511 22.3784C216.639 22.083 216.795 21.7464 216.939 21.3402C217.113 20.9328 217.306 20.5246 217.529 20.0952C217.741 19.6462 217.953 19.2073 218.215 18.7563C218.477 18.3052 218.749 17.8538 219.032 17.442C217.151 16.6978 215.27 15.9935 213.41 15.2885C213.218 15.2462 213.104 15.1408 213.029 15.0237C212.954 14.8867 212.948 14.7468 213.002 14.5945C213.045 14.4326 213.162 14.3478 213.311 14.3217C213.459 14.2657 213.629 14.2688 213.781 14.3226C215.753 15.0532 217.716 15.8341 219.698 16.5743C219.906 16.2855 220.156 16.0252 220.407 15.7948C220.677 15.5636 220.921 15.3936 221.196 15.2623C221.46 15.1115 221.737 15.0402 221.997 15.0396C222.275 14.9783 222.548 15.0473 222.802 15.147C223.065 15.2164 223.262 15.3785 223.41 15.5727C223.549 15.7772 223.667 15.9726 223.718 16.2507C223.778 16.5085 223.78 16.7887 223.732 17.0909C223.704 17.3922 223.638 17.7352 223.572 18.0882C226.218 19.1616 228.864 20.2351 231.531 21.3477C231.703 21.3907 231.828 21.4958 231.904 21.6428C231.989 21.7695 231.994 21.8993 231.941 22.0617ZM216.838 25.7479C217.38 25.2956 217.909 24.7736 218.416 24.1826C218.953 23.6103 219.458 22.9793 219.913 22.3703C220.388 21.7405 220.803 21.1031 221.166 20.4478C221.54 19.8021 221.836 19.1996 222.063 18.6199C221.453 18.3845 220.841 18.1191 220.232 17.9036C219.852 18.3895 219.458 19.056 219.021 19.8645C218.582 20.6529 218.173 21.6504 217.68 22.8313C217.426 23.4722 217.259 24.0394 217.107 24.486C216.976 24.9617 216.882 25.3658 216.838 25.7479ZM222.312 16.1377C222.232 16.131 222.053 16.1683 221.817 16.2679C221.572 16.388 221.251 16.6312 220.907 17.0255C221.396 17.2258 221.895 17.4358 222.402 17.6053C222.476 17.212 222.542 16.879 222.531 16.6092C222.501 16.3602 222.455 16.212 222.312 16.1377ZM232.5 36.5709C232.742 36.3709 233.073 36.1373 233.463 35.8712C233.85 35.5552 234.25 35.3088 234.65 35.0324C235.089 34.7543 235.509 34.507 235.878 34.2418C236.279 34.0053 236.593 33.8425 236.838 33.7124C237.272 33.5547 237.658 33.4589 238.019 33.4842C238.389 33.4692 238.702 33.5366 238.968 33.6859C239.243 33.8048 239.449 33.9266 239.596 34.1107C239.734 34.2953 239.843 34.521 239.902 34.7488C239.961 34.9666 239.979 35.166 239.961 35.447C239.92 35.6789 239.86 35.9315 239.759 36.1558C239.706 36.3081 239.612 36.482 239.482 36.7075C239.41 36.9106 239.29 37.1557 239.181 37.4403C239.04 37.6562 238.92 37.9213 238.801 38.1964C238.642 38.4631 238.542 38.7173 238.463 38.9708C238.695 38.7712 239.006 38.5484 239.318 38.3555C239.639 38.1223 239.95 37.8995 240.271 37.6563C240.602 37.4326 240.914 37.2398 241.187 37.0586C241.49 36.8661 241.764 36.7249 241.979 36.596C242.628 36.2994 243.171 36.1272 243.622 36.1489C244.081 36.1203 244.466 36.2147 244.752 36.3532C245.078 36.5001 245.346 36.6994 245.515 36.9127C245.694 37.1456 245.814 37.371 245.862 37.5692C245.921 37.8069 245.932 38.0667 245.891 38.2986C245.851 38.5304 245.8 38.7527 245.717 38.9262C245.579 39.232 245.431 39.5183 245.253 39.8357C245.076 40.1432 244.89 40.501 244.698 40.9592C244.636 41.1419 244.562 41.305 244.511 41.5273C244.438 41.6904 244.425 41.871 244.423 42.0613C244.439 42.2208 244.516 42.3878 244.602 42.5344C244.718 42.6798 244.884 42.8132 245.12 42.9537C245.355 43.0843 245.658 43.142 245.939 43.1706C246.239 43.1585 246.538 43.1263 246.845 43.0538C247.163 42.9808 247.457 42.8487 247.762 42.7062C248.077 42.5833 248.37 42.4113 248.635 42.2704C248.909 42.1092 249.162 41.9488 249.376 41.78C249.59 41.6411 249.785 41.5031 249.939 41.3567C250.007 41.3039 250.125 41.2591 250.235 41.2446C250.325 41.251 250.476 41.2649 250.568 41.3312C250.742 41.4142 250.856 41.5196 250.893 41.6883C250.97 41.8653 250.977 42.0151 250.921 42.1175C250.894 42.1987 250.866 42.2498 250.787 42.2731C250.709 42.3363 250.594 42.451 250.35 42.6011C250.166 42.7687 249.894 42.9499 249.591 43.1323C249.248 43.3164 248.885 43.4913 248.492 43.6774C248.108 43.8331 247.704 43.9897 247.268 44.1074C246.851 44.1844 246.413 44.2423 245.982 44.2298C245.551 44.1973 245.137 44.104 244.728 43.9004C244.299 43.6877 243.949 43.4517 243.737 43.1601C243.536 42.888 243.365 42.6247 243.293 42.3274C243.23 42.0197 243.238 41.7091 243.295 41.3866C243.352 41.064 243.429 40.7406 243.586 40.4339C243.748 39.987 243.943 39.6088 244.13 39.2809C244.336 38.9322 244.466 38.6768 244.566 38.4425C244.657 38.2186 244.69 38.0371 244.695 37.9168C244.69 37.7969 244.686 37.697 244.613 37.6199C244.588 37.5108 244.526 37.4533 244.466 37.4458C244.424 37.4074 244.372 37.3695 244.332 37.3711C244.117 37.2298 243.796 37.2228 243.422 37.3681C243.055 37.463 242.682 37.6283 242.231 37.8768C241.791 38.1349 241.324 38.4442 240.837 38.7842C240.341 39.1346 239.845 39.4851 239.338 39.8159C239.036 40.0284 238.813 40.1976 238.638 40.3248C238.453 40.4624 238.276 40.5396 238.119 40.6061C238 40.6509 237.871 40.6562 237.731 40.6619C237.62 40.6564 237.509 40.6309 237.387 40.5758C237.122 40.4664 236.945 40.2935 236.855 40.0569C236.798 39.8691 236.798 39.6389 236.898 39.3746C236.973 39.2515 237.026 39.0892 237.138 38.8745C237.229 38.6706 237.309 38.4171 237.459 38.1708C237.559 37.9266 237.688 37.6511 237.818 37.3856C237.947 37.1202 238.056 36.8455 238.176 36.5905C238.286 36.3558 238.397 36.1211 238.479 35.9176C238.57 35.7137 238.645 35.5806 238.691 35.4786C238.781 35.2347 238.805 35.0737 238.747 34.8958C238.702 34.7676 238.618 34.6609 238.486 34.6162C238.373 34.5608 238.233 34.5465 238.063 34.5534C237.903 34.5599 237.695 34.6183 237.43 34.7392C237.234 34.8472 236.949 34.9789 236.607 35.173C236.265 35.387 235.924 35.6111 235.515 35.8779C235.115 36.1444 234.735 36.39 234.335 36.6565C233.957 36.9421 233.616 37.1861 233.336 37.4277C232.986 37.6921 232.663 37.8554 232.403 37.8659C232.145 37.9264 231.904 37.9062 231.7 37.8044C231.414 37.6659 231.197 37.5046 231.129 37.2972C231.05 37.0902 231.05 36.84 231.14 36.5961C231.159 36.5753 231.222 36.4026 231.352 36.1572C231.471 35.8621 231.637 35.5251 231.811 35.1377C231.994 34.6999 232.198 34.3013 232.378 33.8136C232.61 33.3538 232.802 32.9156 232.976 32.5282C233.078 32.3139 233.149 32.0909 233.201 31.9086C233.244 31.7167 233.258 31.576 233.195 31.5085C233.135 31.5009 232.868 31.5818 232.516 31.7963C232.185 32.0099 231.661 32.4116 230.975 33.0199C230.898 33.0931 230.779 33.1279 230.659 33.1328C230.55 33.1473 230.409 33.133 230.317 33.0767C230.123 33.0045 230.009 32.889 229.952 32.7312C229.897 32.6133 229.871 32.4643 229.926 32.3419C229.934 32.2816 230.001 32.2088 230.069 32.156C230.889 31.3921 231.6 30.9128 232.208 30.6178C232.799 30.3737 233.308 30.343 233.705 30.507C233.938 30.5876 234.104 30.711 234.22 30.8763C234.368 31.0505 234.435 31.2279 234.463 31.417C234.49 31.606 234.498 31.7958 234.457 32.0177C234.414 32.1996 234.382 32.401 234.33 32.5833C234.011 33.3569 233.7 34.0801 233.395 34.703C233.09 35.3159 232.804 35.928 232.5 36.5709ZM255.625 47.541C255.399 47.4 255.164 47.2795 255.028 47.1449C254.764 47.2957 254.481 47.4673 254.176 47.5898C253.87 47.7023 253.562 47.7549 253.212 47.7791C252.872 47.7829 252.521 47.7572 252.128 47.6831C251.784 47.597 251.398 47.4725 251.019 47.2477C250.548 46.9966 250.147 46.7227 249.823 46.3756C249.519 46.0377 249.264 45.6777 249.078 45.2849C248.89 44.8622 248.804 44.4554 248.797 44.0353C248.798 43.5849 248.881 43.1412 249.053 42.6938C249.301 42.1533 249.614 41.7302 250.032 41.423C250.43 41.1166 250.841 40.8997 251.267 40.7823C251.692 40.655 252.07 40.5996 252.42 40.5954C252.781 40.6007 253.034 40.6705 253.187 40.7444C253.329 40.7986 253.474 40.9228 253.51 41.0615C253.545 41.1802 253.55 41.3201 253.485 41.4228C253.44 41.5547 253.324 41.6695 253.185 41.6852C253.066 41.72 252.905 41.6966 252.706 41.7147C252.505 41.7028 252.296 41.7213 252.066 41.7407C251.838 41.79 251.601 41.8597 251.375 41.9689C251.13 42.089 250.926 42.2474 250.705 42.4765C250.503 42.6849 250.324 42.9524 250.187 43.2782C250.058 43.5437 249.99 43.8467 249.983 44.1673C249.984 44.4374 250.016 44.7364 250.158 45.0209C250.238 45.2578 250.419 45.5307 250.639 45.772C250.849 46.0136 251.106 46.1833 251.443 46.3598C251.985 46.628 252.492 46.7876 252.95 46.7489C253.419 46.7098 253.834 46.5629 254.204 46.3176C253.73 45.7464 253.413 45.0787 253.245 44.395C253.076 43.6913 253.151 43.0577 253.406 42.4369C253.635 41.9171 253.941 41.5744 254.364 41.3871C254.767 41.2206 255.199 41.2531 255.639 41.4854C255.895 41.6351 256.132 41.8056 256.323 42.0581C256.512 42.2906 256.654 42.5851 256.709 42.9332C256.772 43.2708 256.798 43.6601 256.726 44.0934C256.675 44.5659 256.524 45.0524 256.296 45.5921C256.168 45.8775 255.998 46.1446 255.799 46.403C255.859 46.4205 255.911 46.4684 255.964 46.5264C256.025 46.5439 256.086 46.5814 256.148 46.629C256.496 46.805 256.78 46.9035 257.084 47.0013C257.396 47.0386 257.678 47.0872 257.957 47.0559C258.226 47.0349 258.474 46.9648 258.758 46.8231C259.034 46.7118 259.307 46.5406 259.599 46.3286C259.658 46.3062 259.727 46.2933 259.868 46.3076C259.948 46.2944 260.088 46.3087 260.191 46.3646C260.313 46.4297 260.409 46.5559 260.454 46.6942C260.531 46.8612 260.567 46.9998 260.474 47.1738C260.457 47.2545 260.389 47.3073 260.312 47.3805C260.234 47.4337 260.166 47.4765 260.119 47.5485C259.826 47.7205 259.511 47.8534 259.176 47.9871C258.839 48.0809 258.512 48.1642 258.123 48.1801C257.744 48.2155 257.361 48.141 256.936 48.0481C256.523 47.9748 256.075 47.7729 255.625 47.541ZM254.556 42.9105C254.492 43.0533 254.44 43.2555 254.388 43.4678C254.376 43.6685 254.375 43.8887 254.375 44.1189C254.425 44.3671 254.464 44.5857 254.544 44.8426C254.644 45.0887 254.754 45.3245 254.914 45.5582C255.016 45.3639 255.14 45.2087 255.202 45.026C255.293 44.7922 255.382 44.5283 255.462 44.2649C255.531 44.0118 255.561 43.7504 255.56 43.4902C255.6 43.2484 255.582 43.049 255.524 42.8412C255.456 42.6538 255.37 42.5071 255.218 42.4533C255.157 42.4357 255.067 42.4294 254.937 42.4447C254.779 42.4811 254.675 42.6455 254.556 42.9105ZM261.484 51.086C261.766 50.8844 262.087 50.6611 262.438 50.4267C262.819 50.201 263.2 49.9754 263.571 49.7601C263.962 49.5241 264.384 49.3068 264.775 49.0807C265.207 48.873 265.639 48.6853 266.073 48.5275C266.487 48.3706 266.885 48.3044 267.227 48.3405C267.579 48.3763 267.882 48.444 268.118 48.5945C268.65 48.8732 268.946 49.2815 269.015 49.7391C269.105 50.2358 269.035 50.7291 268.795 51.2192C268.739 51.3316 268.684 51.4539 268.581 51.6182C268.508 51.7913 268.404 51.9357 268.292 52.1304C268.209 52.3039 268.096 52.4787 267.993 52.673C267.87 52.8281 267.798 53.0412 267.725 53.2043C267.644 53.4278 267.551 53.6017 267.49 53.8244C267.408 54.0378 267.397 54.2485 267.384 54.4192C267.382 54.6194 267.448 54.7568 267.515 54.9343C267.612 55.1105 267.746 55.2151 267.952 55.3568C268.321 55.552 268.724 55.6357 269.163 55.6079C269.641 55.5384 270.117 55.419 270.56 55.2409C271.062 55.0403 271.474 54.8434 271.855 54.5978C272.244 54.3217 272.537 54.1397 272.779 53.9497C272.866 53.8761 272.976 53.8716 273.055 53.8484C273.206 53.8723 273.297 53.8986 273.419 53.9337C273.564 54.0479 273.699 54.1825 273.736 54.3412C273.793 54.529 273.78 54.6797 273.725 54.812C273.677 54.864 273.64 54.9455 273.612 54.9867C273.524 55.0303 273.367 55.1268 273.153 55.2756C272.92 55.4352 272.647 55.6164 272.323 55.7697C271.999 55.933 271.667 56.1366 271.234 56.3144C270.849 56.4601 270.435 56.5971 269.997 56.6749C269.59 56.7515 269.152 56.7993 268.72 56.7668C268.308 56.7235 267.893 56.6003 267.502 56.3359C267.092 56.1024 266.75 55.826 266.557 55.5136C266.364 55.1812 266.231 54.8663 266.208 54.547C266.163 54.1885 266.199 53.8368 266.266 53.5238C266.352 53.16 266.48 52.8646 266.648 52.5575C266.671 52.3964 266.776 52.2821 266.849 52.099C266.953 51.9546 267.057 51.7903 267.151 51.6363C267.273 51.4412 267.366 51.2673 267.469 51.093C267.572 50.9186 267.654 50.7251 267.737 50.5616C267.887 50.2953 267.917 50.0539 267.871 49.9156C267.815 49.7578 267.75 49.6304 267.688 49.5928C267.514 49.4898 267.303 49.4884 267.026 49.5497C266.758 49.6006 266.451 49.6931 266.116 49.8268C265.782 49.9805 265.409 50.1558 265.026 50.3415C264.645 50.5772 264.293 50.7617 263.951 50.9857C263.609 51.1897 263.287 51.373 262.956 51.6066C262.663 51.7787 262.429 51.9383 262.235 52.0963C261.895 52.3503 261.58 52.4732 261.33 52.4834C261.071 52.5039 260.858 52.4325 260.644 52.3411C260.357 52.1726 260.188 51.9693 260.079 51.7336C259.989 51.497 259.998 51.2364 260.127 50.961C260.144 50.8802 260.21 50.7675 260.323 50.6027C260.406 50.4292 260.529 50.2441 260.67 50.0282C260.82 49.7719 260.96 49.536 261.129 49.2589C261.288 48.9822 261.437 48.7159 261.596 48.4392C261.746 48.1829 261.905 47.9063 262.015 47.6516C262.146 47.4361 262.268 47.231 262.341 47.0679C262.452 46.8432 262.512 46.6005 262.605 46.4166C262.655 46.1744 262.7 46.0424 262.627 45.9753C262.516 45.9498 262.319 46.0279 261.946 46.2132C261.594 46.4077 261.049 46.7901 260.371 47.3481C260.273 47.4021 260.175 47.4461 260.055 47.451C259.916 47.4767 259.804 47.4312 259.7 47.3453C259.548 47.2915 259.402 47.1573 259.376 47.0082C259.32 46.8504 259.323 46.6901 259.378 46.5577C259.405 46.4966 259.453 46.4246 259.522 46.4018C260.363 45.677 261.094 45.1969 261.696 44.9823C262.276 44.7286 262.766 44.7287 263.155 44.923C263.38 45.044 263.546 45.1974 263.645 45.4035C263.772 45.5885 263.82 45.7867 263.818 45.987C263.849 46.236 263.837 46.4466 263.787 46.6888C263.746 46.9107 263.675 47.1337 263.574 47.358C263.52 47.5103 263.369 47.7367 263.202 48.0537C263.015 48.3716 262.819 48.7398 262.615 49.1284C262.419 49.4867 262.193 49.8261 261.998 50.1944C261.801 50.5326 261.624 50.8401 261.484 51.086ZM287.243 63.5903C287.038 63.7188 286.775 63.8996 286.462 64.0924C286.18 64.2841 285.857 64.4573 285.493 64.6322C285.151 64.8163 284.757 64.9724 284.374 65.1581C283.948 65.2655 283.571 65.3609 283.134 65.4287C282.755 65.4641 282.354 65.4504 281.93 65.3675C281.548 65.313 281.161 65.1586 280.802 64.933C280.216 64.5665 279.836 64.0715 279.571 63.4717C279.337 62.8808 279.19 62.2162 279.171 61.4964C279.152 60.7965 279.211 60.0235 279.368 59.1965C279.536 58.409 279.743 57.5999 279.972 56.82C280.239 56.0185 280.509 55.2569 280.791 54.5649C281.091 53.8221 281.387 53.2296 281.635 52.679C282.003 51.8934 282.401 51.0866 282.848 50.2778C283.305 49.4586 283.754 48.6797 284.284 47.9375C284.785 47.1966 285.288 46.5156 285.802 45.8842C286.318 45.2628 286.857 44.7405 287.35 44.3101C287.854 43.9093 288.353 43.6288 288.837 43.479C289.332 43.3488 289.764 43.3913 290.165 43.6452C290.522 43.8209 290.752 44.0517 290.935 44.3646C291.128 44.677 291.253 45.0522 291.281 45.5014C291.299 45.9311 291.24 46.4539 291.084 47.0607C290.948 47.6467 290.676 48.3284 290.318 49.1235C289.856 50.0831 289.273 51.0075 288.59 51.916C287.915 52.8041 287.159 53.6555 286.321 54.4502C285.503 55.2641 284.593 56.0217 283.631 56.7313C282.699 57.4498 281.724 58.0799 280.737 58.6704C280.421 60.0044 280.296 61.1104 280.383 62.0176C280.451 62.9456 280.796 63.5721 281.341 63.9302C281.712 64.1754 282.166 64.277 282.635 64.228C283.132 64.1477 283.637 64.0171 284.13 63.8369C284.611 63.5972 285.053 63.3891 285.473 63.1418C285.921 62.8434 286.254 62.6597 286.507 62.4793C286.604 62.4053 286.693 62.3817 286.794 62.3976C286.923 62.3823 287.025 62.4182 287.138 62.5037C287.292 62.5975 287.387 62.7237 287.435 62.902C287.473 63.1006 287.489 63.2401 287.414 63.3832C287.377 63.4448 287.31 63.5176 287.243 63.5903ZM282.706 53.4162C282.41 54.0187 282.142 54.58 281.955 55.1481C281.698 55.719 281.501 56.2775 281.302 56.796C282.052 56.2851 282.84 55.7426 283.605 55.111C284.361 54.4899 285.104 53.8291 285.826 53.1192C286.507 52.391 287.158 51.6539 287.726 50.8602C288.325 50.0952 288.804 49.3052 289.211 48.478C289.695 47.3474 290.02 46.4735 290.046 45.8819C290.061 45.2708 289.945 44.8752 289.647 44.6971C289.412 44.5666 289.152 44.5871 288.85 44.7796C288.516 44.9333 288.167 45.2176 287.762 45.5844C287.368 46.0007 286.966 46.4474 286.52 47.036C286.082 47.5843 285.657 48.2121 285.205 48.911C284.782 49.5887 284.331 50.3176 283.902 51.0857C283.473 51.8537 283.074 52.6406 282.706 53.4162ZM291.702 69.6343C291.456 69.4941 291.259 69.322 291.102 69.1582C290.82 69.3698 290.506 69.5127 290.189 69.5957C289.883 69.6982 289.545 69.7619 289.204 69.7458C288.855 69.77 288.482 69.7151 288.127 69.5894C287.751 69.4545 287.362 69.2501 287.003 69.0345C286.57 68.7219 286.176 68.3776 285.91 67.9781C285.612 67.5598 285.386 67.1587 285.247 66.7039C285.129 66.2484 285.04 65.7916 285.1 65.2987C285.12 64.7975 285.262 64.3514 285.473 63.8824C285.779 63.2795 286.111 62.8457 286.57 62.5568C287.008 62.2488 287.441 62.061 287.867 61.9537C288.311 61.8155 288.721 61.7988 289.052 61.8154C289.414 61.8607 289.677 61.9201 289.831 62.0339C289.986 62.1378 290.1 62.2432 290.116 62.3827C290.181 62.5201 290.157 62.6612 290.083 62.8044C290.009 62.9575 289.883 63.0527 289.724 63.0792C289.614 63.0936 289.464 63.0797 289.262 63.0479C289.062 63.036 288.861 63.0242 288.612 63.0643C288.373 63.084 288.126 63.1641 287.88 63.2642C287.623 63.3547 287.4 63.5239 287.169 63.7535C286.908 63.9743 286.719 64.2522 286.542 64.5696C286.415 64.895 286.327 65.2088 286.271 65.5314C286.234 65.8532 286.257 66.1725 286.359 66.4786C286.412 66.8067 286.594 67.0796 286.775 67.3524C286.967 67.6349 287.216 67.8749 287.524 68.0526C288.039 68.422 288.577 68.5903 289.038 68.6116C289.497 68.5829 289.963 68.4639 290.323 68.2191C289.904 67.5155 289.676 66.8242 289.574 66.0377C289.473 65.2712 289.574 64.5565 289.917 63.892C290.185 63.3507 290.521 62.9967 290.944 62.8094C291.388 62.6612 291.82 62.7037 292.252 62.9864C292.499 63.1565 292.728 63.3674 292.91 63.6503C293.09 63.9132 293.185 64.2596 293.219 64.6185C293.286 65.0361 293.223 65.459 293.142 65.9227C293.032 66.4176 292.814 66.9669 292.548 67.5482C292.41 67.844 292.211 68.1323 291.953 68.4331C292.014 68.4506 292.067 68.5185 292.128 68.5561C292.189 68.5736 292.261 68.6207 292.323 68.6682C292.632 68.8759 292.949 69.0431 293.232 69.1217C293.528 69.2498 293.819 69.288 294.109 69.2762C294.388 69.2549 294.686 69.1827 294.971 69.071C295.266 68.9389 295.57 68.7765 295.871 68.5541C295.94 68.5113 296.029 68.5076 296.15 68.5127C296.26 68.5282 296.352 68.5645 296.475 68.6296C296.608 68.7043 296.683 68.8313 296.741 69.0191C296.818 69.1961 296.805 69.3768 296.7 69.5012C296.675 69.6123 296.608 69.6851 296.53 69.7483C296.432 69.8023 296.365 69.8751 296.287 69.9183C295.994 70.1004 295.639 70.2349 295.284 70.3594C294.949 70.4831 294.59 70.5177 294.2 70.5236C293.82 70.529 293.426 70.4449 292.991 70.3225C292.575 70.1893 292.145 69.9565 291.702 69.6343ZM291.031 64.4672C290.958 64.6403 290.866 64.8342 290.826 65.0761C290.776 65.3183 290.755 65.5593 290.746 65.8099C290.766 66.0793 290.798 66.3583 290.838 66.6168C290.929 66.8734 291.02 67.1499 291.151 67.4048C291.254 67.2305 291.395 67.0146 291.488 66.8406C291.598 66.586 291.718 66.3409 291.796 66.0375C291.903 65.7229 291.973 65.4698 292.012 65.198C292.04 64.9066 292.061 64.6956 292.013 64.4974C291.984 64.2584 291.888 64.1321 291.754 64.0275C291.693 64.01 291.603 64.0036 291.463 63.9993C291.324 64.035 291.17 64.1914 291.031 64.4672ZM297.949 78.0575C300.956 76.9545 303.242 75.8208 304.767 74.6779C304.885 74.6131 304.983 74.579 305.093 74.5746C305.214 74.5797 305.305 74.606 305.437 74.6607C305.593 74.8045 305.698 74.9303 305.726 75.1193C305.784 75.3271 305.77 75.4778 305.687 75.6413C305.639 75.6933 305.612 75.7645 305.534 75.8077C304.591 76.5065 303.409 77.2251 302.015 77.8923C300.591 78.5507 298.946 79.188 297.03 79.8263C296.703 80.4001 296.398 81.013 296.082 81.6163C295.806 82.218 295.462 82.8625 295.11 83.5574C294.728 84.2634 294.364 84.9187 293.951 85.5761C293.586 86.2014 293.191 86.818 292.772 87.3454C292.393 87.8812 291.981 88.3383 291.557 88.7259C291.143 89.123 290.774 89.4182 290.331 89.5864C289.929 89.7929 289.52 89.8295 289.108 89.7962C288.696 89.7629 288.287 89.5493 287.853 89.2067C287.254 88.7406 286.93 88.1633 286.82 87.4371C286.743 86.7697 286.922 86.0018 287.329 85.1746C287.572 84.7544 287.834 84.3034 288.196 83.8583C288.569 83.4128 288.982 82.9857 289.444 82.5466C289.876 82.0987 290.36 81.6887 290.924 81.2854C291.459 80.9034 291.994 80.5314 292.581 80.1873C293.158 79.8536 293.745 79.5295 294.326 79.2857C294.956 79.0299 295.547 78.8057 296.172 78.6602C296.526 78.0153 296.859 77.3512 297.203 76.7067C297.547 76.0422 297.892 75.4277 298.211 74.8943C297.727 75.0541 297.228 75.0944 296.745 75.0339C296.253 74.9839 295.805 74.8119 295.404 74.538C295.074 74.3012 294.812 74.0216 294.6 73.7199C294.407 73.4075 294.273 73.0527 294.197 72.6754C294.114 72.3486 294.128 71.9577 294.192 71.5747C294.237 71.1926 294.321 70.8089 294.517 70.4506C294.917 69.6938 295.374 69.1247 295.908 68.7127C296.453 68.3303 297.032 68.0465 297.618 67.9426C298.202 67.7988 298.793 67.7948 299.358 67.902C299.933 68.0287 300.452 68.2278 300.905 68.5397C301.213 68.7273 301.462 68.9474 301.683 69.2086C301.892 69.4403 302.052 69.684 302.17 69.8694C302.329 70.1031 302.388 70.3009 302.453 70.4384C302.51 70.5962 302.543 70.6749 302.514 70.7061C302.592 70.8931 302.568 71.0442 302.494 71.2073C302.421 71.3604 302.305 71.4652 302.116 71.5029C301.968 71.549 301.816 71.5151 301.671 71.3909C301.538 71.3262 301.432 71.1604 301.364 70.983C301.353 70.9435 301.31 70.8651 301.275 70.7664C301.221 70.6686 301.187 70.5599 301.101 70.4132C301.047 70.3054 300.951 70.1791 300.825 70.0141C300.69 69.8995 300.554 69.7549 300.37 69.6623C300.061 69.4547 299.715 69.3186 299.291 69.2158C298.886 69.0921 298.475 69.0888 298.028 69.167C297.581 69.2652 297.149 69.4629 296.731 69.7701C296.303 70.0678 295.932 70.5332 295.596 71.1474C295.395 71.6059 295.292 72.0404 295.35 72.4785C295.406 72.8565 295.651 73.2369 296.063 73.5304C296.268 73.6421 296.502 73.7227 296.785 73.7913C297.056 73.8103 297.366 73.8177 297.702 73.704C298.048 73.6098 298.37 73.4066 298.711 73.1726C299.071 72.9077 299.397 72.5542 299.738 72.09C299.803 71.9572 299.94 71.8916 300.099 71.8651C300.239 71.8494 300.41 71.8925 300.535 71.9975C300.709 72.1005 300.805 72.2468 300.832 72.4158C300.86 72.6048 300.855 72.7351 300.751 72.8795C300.762 72.9191 300.668 73.063 300.53 73.3589C300.351 73.6363 300.156 74.0146 299.894 74.4556C299.644 74.9561 299.336 75.4991 298.999 76.0832C298.664 76.6974 298.322 77.3818 297.949 78.0575ZM295.261 80.3886C294.523 80.6888 293.766 81.0298 293.074 81.4783C292.331 81.9089 291.67 82.3961 291.061 82.9213C290.451 83.4464 289.901 83.9392 289.403 84.4999C288.946 85.0689 288.587 85.6039 288.328 86.1049C288.131 86.4331 288.022 86.7078 287.992 86.9492C287.921 87.1723 287.93 87.3921 287.976 87.5603C287.983 87.7302 288.038 87.848 288.134 87.9943C288.218 88.0909 288.313 88.1972 288.406 88.2835C288.686 88.5123 288.969 88.5909 289.287 88.5279C289.625 88.4741 289.939 88.3312 290.29 88.0868C290.629 87.8228 290.976 87.4885 291.31 87.0946C291.644 86.6807 291.996 86.226 292.325 85.7222C292.616 85.24 292.927 84.777 293.237 84.274C293.526 83.7518 293.788 83.2908 294.019 82.831C294.243 82.4316 294.438 82.0434 294.652 81.6444C294.865 81.2354 295.059 80.8372 295.261 80.3886ZM309.802 82.3398C309.565 82.1592 309.347 81.9779 309.221 81.8229C308.908 82.0058 308.595 82.1687 308.25 82.3128C307.904 82.4169 307.566 82.4707 307.196 82.4757C306.836 82.4903 306.473 82.425 306.078 82.301C305.712 82.1757 305.344 81.9805 304.963 81.7057C304.508 81.3539 304.153 80.988 303.886 80.5685C303.598 80.1399 303.37 79.6888 303.27 79.2224C303.159 78.7065 303.109 78.2081 303.178 77.6949C303.248 77.1817 303.406 76.6548 303.647 76.1746C304.002 75.5597 304.403 75.063 304.87 74.7338C305.316 74.3854 305.808 74.1752 306.254 74.077C306.709 73.9384 307.128 73.9014 307.509 73.9359C307.881 73.9709 308.144 74.0502 308.289 74.1545C308.453 74.2579 308.558 74.3737 308.574 74.5132C308.62 74.6714 308.596 74.8225 308.491 74.9469C308.419 75.14 308.293 75.2352 308.144 75.2713C308.005 75.2969 307.834 75.2839 307.643 75.2516C307.442 75.2297 307.221 75.2187 306.973 75.2688C306.703 75.2698 306.446 75.3603 306.17 75.4616C305.916 75.612 305.672 75.762 305.401 75.9932C305.161 76.2532 304.923 76.5531 304.748 76.9205C304.561 77.2484 304.465 77.5926 304.389 77.9359C304.334 78.2985 304.368 78.6374 304.422 78.9855C304.485 79.3032 304.618 79.618 304.799 79.8909C305.011 80.1825 305.252 80.443 305.561 80.6706C306.097 81.0591 306.605 81.2387 307.095 81.2288C307.575 81.2093 308.059 81.0695 308.479 80.8022C308.079 80.0679 307.857 79.2962 307.784 78.4685C307.72 77.6504 307.878 76.8434 308.279 76.1265C308.587 75.5835 308.971 75.1776 309.413 74.9695C309.886 74.7801 310.338 74.8318 310.771 75.1545C311.038 75.3038 311.268 75.5546 311.429 75.8283C311.582 76.1324 311.676 76.4689 311.692 76.8685C311.73 77.3173 311.668 77.7702 311.55 78.2955C311.411 78.8315 311.155 79.4124 310.83 80.0461C310.653 80.3636 310.436 80.6827 310.159 81.0042C310.22 81.0517 310.282 81.0892 310.334 81.1372C310.396 81.1747 310.437 81.2031 310.519 81.2598C310.818 81.4678 311.125 81.6455 311.449 81.7324C311.744 81.8505 312.066 81.8975 312.345 81.8661C312.655 81.8535 312.932 81.7622 313.266 81.6185C313.571 81.486 313.914 81.302 314.244 81.0683C314.302 80.996 314.412 81.0015 314.522 81.007C314.653 81.0217 314.764 81.0472 314.847 81.1139C314.99 81.1981 315.076 81.3348 315.104 81.5338C315.181 81.7008 315.148 81.8823 315.076 82.0754C315.029 82.1474 314.963 82.2401 314.845 82.305C314.749 82.389 314.671 82.4422 314.603 82.505C314.261 82.709 313.888 82.8843 313.534 83.0288C313.137 83.135 312.761 83.2304 312.361 83.2366C311.96 83.2329 311.538 83.19 311.101 83.0276C310.686 82.8943 310.256 82.6616 309.802 82.3398ZM309.415 76.7409C309.323 76.9348 309.222 77.1591 309.171 77.3813C309.092 77.6547 309.052 77.9066 309.024 78.198C309.034 78.4578 309.057 78.7771 309.089 79.056C309.16 79.3334 309.232 79.6307 309.352 79.886C309.516 79.7192 309.648 79.5137 309.739 79.3098C309.889 79.0435 310.027 78.7477 310.154 78.4323C310.261 78.1076 310.339 77.8042 310.367 77.5228C310.445 77.2194 310.465 76.9784 310.436 76.7594C310.407 76.5304 310.32 76.3638 310.185 76.2492C310.125 76.2316 310.034 76.2253 309.874 76.2318C309.736 76.2675 309.572 76.4342 309.415 76.7409Z" fill="white"/>
<path d="M222.668 218.46C222.468 218.65 222.459 218.967 222.649 219.167L225.745 222.433C225.935 222.633 226.251 222.642 226.452 222.452C226.652 222.262 226.661 221.945 226.471 221.745L223.719 218.842L226.622 216.09C226.822 215.9 226.831 215.584 226.641 215.383C226.451 215.183 226.134 215.174 225.934 215.364L222.668 218.46ZM310.585 103.1C316.374 131.603 313.097 160.918 299.087 182.838C285.094 204.731 260.349 219.32 223.025 218.323L222.999 219.323C260.631 220.328 285.726 205.599 299.929 183.376C314.115 161.181 317.391 131.584 311.565 102.9L310.585 103.1Z" fill="white"/>
</svg>
