<svg width="22" height="24" viewBox="0 0 22 24" fill="none" xmlns="http://www.w3.org/2000/svg">
<path d="M10.9962 1.78128e-05C10.9772 0.000532987 10.9582 0.00153331 10.9392 0.00301781C10.8587 0.00901817 10.7793 0.0258359 10.7032 0.0530178C10.6457 0.0737231 10.5904 0.100191 10.5382 0.132018L0.936211 5.67502C0.800958 5.75299 0.688622 5.8652 0.610505 6.00037C0.532388 6.13554 0.491243 6.2889 0.491211 6.44502V17.556C0.491223 17.717 0.534951 17.875 0.617728 18.0131C0.700505 18.1511 0.819223 18.2641 0.961211 18.34L10.5592 23.881L10.6132 23.91V23.912C10.6402 23.9251 10.6679 23.9368 10.6962 23.947L10.7082 23.951C10.7362 23.961 10.7642 23.969 10.7932 23.975C10.8032 23.976 10.8042 23.978 10.8092 23.979C10.9064 23.9998 11.0064 24.0049 11.1052 23.994C11.1342 23.9909 11.1629 23.9858 11.1912 23.979C11.2012 23.979 11.2022 23.977 11.2072 23.975C11.2359 23.9684 11.2643 23.9603 11.2922 23.951L11.3042 23.947C11.3325 23.9368 11.3602 23.9251 11.3872 23.912V23.91C11.4055 23.9009 11.4235 23.8912 11.4412 23.881L21.0402 18.34C21.182 18.264 21.3005 18.1509 21.3831 18.0129C21.4657 17.8748 21.5093 17.7169 21.5092 17.556V6.48002L21.5082 6.45402V6.44602C21.5082 6.31748 21.4803 6.19049 21.4264 6.07378C21.3725 5.95708 21.294 5.85344 21.1962 5.77002L21.1672 5.74602C21.1672 5.74402 21.1572 5.74102 21.1572 5.73902C21.1233 5.71317 21.0875 5.68978 21.0502 5.66902L11.4532 0.127018C11.3135 0.0429276 11.1533 -0.00101552 10.9902 1.78128e-05H10.9962ZM11.0062 2.25302C11.0782 2.25302 11.1502 2.27202 11.2152 2.30902L17.7522 6.08302C17.8158 6.1197 17.8685 6.17247 17.9052 6.23602C17.9419 6.29956 17.9612 6.37164 17.9612 6.44502C17.9612 6.51839 17.9419 6.59047 17.9052 6.65402C17.8685 6.71756 17.8158 6.77033 17.7522 6.80702L11.2152 10.581C11.1517 10.6177 11.0796 10.637 11.0062 10.637C10.9328 10.637 10.8608 10.6177 10.7972 10.581L4.26021 6.80702C4.19667 6.77033 4.1439 6.71756 4.10721 6.65402C4.07052 6.59047 4.05121 6.51839 4.05121 6.44502C4.05121 6.37164 4.07052 6.29956 4.10721 6.23602C4.1439 6.17247 4.19667 6.1197 4.26021 6.08302L10.7972 2.30902C10.8608 2.27242 10.9328 2.25311 11.0062 2.25302ZM2.92621 8.71102C3.00174 8.71005 3.07609 8.72976 3.14121 8.76802L9.66521 12.534C9.72849 12.5707 9.78102 12.6233 9.81753 12.6867C9.85403 12.75 9.87324 12.8219 9.87321 12.895V20.428C9.87324 20.5013 9.85396 20.5733 9.81733 20.6367C9.7807 20.7001 9.72799 20.7528 9.66453 20.7894C9.60106 20.826 9.52908 20.8452 9.45582 20.8452C9.38256 20.8451 9.31061 20.8257 9.24721 20.789L2.72421 17.023C2.6606 16.9864 2.60777 16.9337 2.57108 16.8701C2.53438 16.8065 2.51511 16.7344 2.51521 16.661V9.13002C2.51521 8.88902 2.71121 8.71602 2.92521 8.71202L2.92621 8.71102ZM19.0862 8.71102C19.3012 8.71502 19.4962 8.88802 19.4962 9.12902V16.661C19.4961 16.7343 19.4769 16.8062 19.4404 16.8697C19.4039 16.9332 19.3514 16.9861 19.2882 17.023L12.7642 20.789C12.7008 20.8257 12.6289 20.8451 12.5556 20.8452C12.4823 20.8452 12.4104 20.826 12.3469 20.7894C12.2834 20.7528 12.2307 20.7001 12.1941 20.6367C12.1575 20.5733 12.1382 20.5013 12.1382 20.428V12.895C12.1382 12.746 12.2182 12.609 12.3472 12.535L18.8702 8.76802C18.9356 8.72963 19.0104 8.70992 19.0862 8.71102Z" fill="black"/>
</svg>
