<svg width="29" height="41" viewBox="0 0 29 41" fill="none" xmlns="http://www.w3.org/2000/svg">
<path fill-rule="evenodd" clip-rule="evenodd" d="M8.99374 0V32.6066L29 32.6066L21.5331 39.8592C21.2464 40.1522 20.9054 40.478 20.4163 40.6998C19.9204 40.9246 19.3668 41.0024 18.6995 40.9999H10.7068C9.60654 40.9999 8.62019 40.7034 7.92406 39.9603C7.24119 39.2314 6.99641 38.2403 6.99513 37.1889L6.99513 34.5871H3.70396H3.70246C2.60286 34.5854 1.61773 34.2866 0.923507 33.5416C0.242951 32.8113 3.1767e-06 31.8195 3.1767e-06 30.7676L0 9.57219C0 8.5491 0.367487 7.5256 1.52091 6.52638C1.52148 6.52588 1.52205 6.52539 1.52263 6.52489L8.99374 0ZM3.70546 32.6066H6.99513V4.38534L2.8392 8.01491L2.83756 8.01633C2.10661 8.64912 1.99861 9.13402 1.99861 9.57219L1.99861 30.7676C1.99861 31.5522 2.18275 31.9737 2.39189 32.1981C2.58738 32.4079 2.95457 32.6055 3.70546 32.6066ZM8.99374 34.5871L8.99374 37.1865C8.99374 37.1867 8.99374 37.1869 8.99374 37.1871C8.99478 37.9697 9.17945 38.3894 9.3888 38.6129C9.58495 38.8223 9.95369 39.0195 10.7068 39.0195H18.7033L18.7053 39.0195C19.2238 39.0216 19.4547 38.9579 19.5848 38.8988C19.7172 38.8389 19.8423 38.7426 20.1064 38.4722L20.1155 38.4629L24.1059 34.5871L8.99374 34.5871Z" fill="white"/>
</svg>
