<svg width="16" height="16" viewBox="0 0 16 16" fill="none" xmlns="http://www.w3.org/2000/svg">
<path d="M9.42094 0C9.30525 0 9.19781 0.0249098 9.09862 0.058102C9.30937 0.19909 9.42506 0.385757 9.48287 0.597333C9.48706 0.626384 9.49531 0.647153 9.49944 0.676141C9.50356 0.701051 9.50769 0.725961 9.50769 0.750808C9.52425 1.11586 9.41269 1.16147 9.33412 1.37719C9.21431 1.65515 9.24737 1.95382 9.392 2.19438C9.40437 2.22344 9.42094 2.25663 9.44156 2.28568C9.28456 1.23614 10.1564 1.07853 10.3176 0.750808C10.3299 0.464627 10.0944 0.273757 9.9085 0.141051C9.73081 0.0331294 9.56969 0 9.42094 0ZM10.7349 0.236424C10.7184 0.331859 10.7307 0.306949 10.7266 0.356769C10.7225 0.389961 10.7225 0.431435 10.7184 0.464627C10.7101 0.497757 10.7019 0.530949 10.6894 0.564141C10.6812 0.597396 10.6688 0.630525 10.6564 0.663718C10.6399 0.69691 10.6275 0.725961 10.6109 0.75909C10.5986 0.775718 10.5903 0.792345 10.5779 0.80891L10.5531 0.846243C10.5325 0.875294 10.5118 0.904345 10.4911 0.929192C10.4663 0.954102 10.4457 0.983153 10.4167 1.00386V1.008C10.3919 1.02877 10.3672 1.05368 10.3382 1.07438C10.2515 1.14077 10.1523 1.19053 10.0614 1.25277C10.0325 1.27347 10.0036 1.2901 9.97875 1.31501C9.94981 1.33572 9.925 1.35642 9.90025 1.3814C9.87131 1.40624 9.85069 1.43115 9.82587 1.4602C9.80525 1.48505 9.78044 1.51416 9.76388 1.54315C9.74325 1.5722 9.72262 1.60119 9.70606 1.63024C9.6895 1.6635 9.67713 1.69249 9.66056 1.72562C9.64819 1.75887 9.63581 1.78792 9.62756 1.82105C9.61513 1.85838 9.60687 1.89158 9.59862 1.92477C9.5945 1.9414 9.5945 1.9621 9.59037 1.97873C9.58619 1.99529 9.58619 2.01192 9.58212 2.02849C9.58212 2.06168 9.57794 2.09901 9.57794 2.1322C9.57794 2.15711 9.57794 2.18196 9.58212 2.20687C9.58212 2.24006 9.58625 2.27325 9.5945 2.31059C9.59862 2.34378 9.60687 2.37691 9.61512 2.4101C9.62756 2.44336 9.63581 2.47649 9.64825 2.50968C9.65644 2.53038 9.66887 2.55115 9.67712 2.56778L8.72681 2.19859C8.56807 2.15321 8.40825 2.1117 8.2475 2.0741L7.98719 2.01192C7.73925 1.9621 7.48719 1.92477 7.23519 1.89992C7.22694 1.89992 7.22275 1.89572 7.21456 1.89572C6.96878 1.87087 6.7219 1.85841 6.47487 1.85838C6.29306 1.85838 6.11125 1.86667 5.93363 1.87909C5.6815 1.89572 5.4295 1.92891 5.17737 1.97038C5.11544 1.97873 5.05344 1.99115 4.9915 2.00364C4.86337 2.02849 4.73944 2.05754 4.61963 2.08659L4.43363 2.13635C4.37169 2.16125 4.31381 2.19031 4.256 2.21515L4.11963 2.2774C4.11138 2.28154 4.10306 2.28154 4.099 2.28568C4.05762 2.30638 4.02044 2.32301 3.98325 2.34372C3.97329 2.34711 3.96362 2.35129 3.95431 2.3562C3.90888 2.37691 3.86344 2.40182 3.82625 2.42259C3.79731 2.43501 3.76837 2.45158 3.74362 2.464C3.73163 2.47163 3.71922 2.47856 3.70644 2.48477C3.66925 2.50547 3.63206 2.52624 3.59894 2.54701C3.56475 2.56587 3.53166 2.58665 3.49981 2.60925C3.47088 2.62996 3.442 2.64659 3.41719 2.66729C3.41306 2.67144 3.40894 2.67144 3.40475 2.67558C3.38 2.6922 3.35106 2.71291 3.32625 2.73368L3.318 2.74196L3.25606 2.79172C3.24775 2.79592 3.2395 2.8042 3.23125 2.80835C3.21063 2.82491 3.18994 2.84568 3.16925 2.86231C3.16513 2.87053 3.15688 2.87473 3.15275 2.87887C3.12794 2.90378 3.10313 2.92449 3.07838 2.9494C3.07419 2.9494 3.07419 2.95354 3.07013 2.95768C3.04531 2.97838 3.0205 3.00329 2.99575 3.0282C2.99156 3.03235 2.99156 3.03649 2.98744 3.03649C2.96681 3.05719 2.94619 3.07796 2.9255 3.10287C2.91725 3.11115 2.90488 3.11944 2.89656 3.12772C2.87594 3.15263 2.85113 3.17754 2.82631 3.20238C2.82219 3.21073 2.81394 3.21487 2.80975 3.22315C2.77675 3.25635 2.74781 3.28954 2.71475 3.32273L2.70237 3.33515C2.63625 3.40568 2.566 3.4762 2.49163 3.53845C2.41836 3.60409 2.34106 3.66505 2.26019 3.72097C2.18007 3.77738 2.09735 3.82998 2.01231 3.87859C1.92798 3.92502 1.84107 3.96656 1.752 4.00301C1.6641 4.04051 1.57446 4.07374 1.48338 4.10259C1.30988 4.13992 1.13212 4.21045 0.979312 4.22287C0.946187 4.22287 0.909062 4.23115 0.876 4.23529C0.841458 4.24316 0.807018 4.25146 0.772687 4.2602L0.6735 4.29754C0.640438 4.30996 0.607437 4.32659 0.574375 4.34315C0.545437 4.36386 0.512375 4.38049 0.483438 4.40125C0.4545 4.42196 0.425625 4.44687 0.400813 4.47178C0.371875 4.49249 0.342938 4.52154 0.318188 4.54645C0.293375 4.5755 0.268563 4.60041 0.247938 4.6294C0.227312 4.66259 0.2025 4.69164 0.185938 4.72477C0.165313 4.75388 0.144625 4.78701 0.128063 4.8202C0.111563 4.85754 0.0950625 4.89073 0.082625 4.92813C0.0695915 4.96383 0.0571937 4.99977 0.0454375 5.03592C0.0371875 5.06911 0.0289375 5.10231 0.0248125 5.1355C0.0248125 5.13964 0.020625 5.14378 0.020625 5.14792C0.012375 5.18525 0.012375 5.23507 0.00825 5.25992C0.004125 5.28897 0 5.31388 0 5.34287C0 5.3595 0 5.3802 0.004125 5.39683C0.00825 5.42588 0.012375 5.45079 0.0206875 5.47564C0.0289375 5.50055 0.0371875 5.5254 0.049625 5.55031V5.55445C0.062 5.57936 0.0785 5.60427 0.0950625 5.62911C0.111562 5.65402 0.128125 5.67893 0.148813 5.70378C0.169438 5.72449 0.194188 5.74946 0.219 5.77016C0.243813 5.79507 0.268625 5.81578 0.2975 5.83655C0.396688 5.92364 0.4215 5.95269 0.549562 6.01907C0.570187 6.0315 0.590875 6.03978 0.615687 6.05227C0.619812 6.05227 0.623937 6.05641 0.628062 6.05641C0.628062 6.06469 0.628062 6.06883 0.63225 6.07711C0.636375 6.11037 0.644625 6.1435 0.652875 6.17669C0.661125 6.21402 0.6735 6.24722 0.685937 6.27627C0.698312 6.30118 0.706562 6.32602 0.719 6.35093C0.723125 6.35922 0.72725 6.36756 0.731375 6.37164C0.747937 6.40489 0.7645 6.43388 0.781 6.46293L0.842937 6.55002C0.863562 6.57493 0.888375 6.60398 0.913188 6.62889C0.938 6.65374 0.962812 6.67451 0.991687 6.69936C0.991687 6.69936 0.995875 6.70356 0.999937 6.70356C1.02475 6.72427 1.04956 6.74497 1.07431 6.7616C1.10325 6.78231 1.13219 6.79893 1.16525 6.81556C1.19419 6.83213 1.22725 6.84875 1.26025 6.86118C1.28506 6.8736 1.314 6.88188 1.34294 6.89023C1.34706 6.89437 1.35119 6.89437 1.35944 6.89851C1.376 6.90265 1.39663 6.90679 1.41319 6.91093C1.40075 7.13493 1.39663 7.34651 1.42969 7.42118C1.46688 7.50413 1.64869 7.25114 1.8305 6.96075C1.80575 7.24693 1.78925 7.58293 1.8305 7.68251C1.87594 7.78623 2.12388 7.46265 2.33875 7.10588C5.26838 6.4256 7.94175 8.45823 8.22275 11.3288C8.169 10.8808 7.6195 10.6319 7.36744 10.6941C7.24344 11.0011 7.03275 11.3952 6.69394 11.6399C6.72281 11.3661 6.71044 11.084 6.65256 10.8103C6.56169 11.1919 6.384 11.5487 6.14019 11.8556C5.74769 11.8847 5.35519 11.6939 5.1485 11.4076C5.132 11.3952 5.12787 11.3703 5.1155 11.3537C5.10306 11.3247 5.09069 11.2956 5.08238 11.2666C5.07034 11.2388 5.06202 11.2095 5.05762 11.1795C5.0535 11.1504 5.0535 11.1214 5.0535 11.0882V11.026C5.05763 10.997 5.06587 10.9679 5.07412 10.9389C5.08237 10.9099 5.09069 10.8808 5.10306 10.8518C5.11963 10.8227 5.132 10.7937 5.15263 10.7647C5.22288 10.5655 5.22287 10.4038 5.09481 10.3083C5.07 10.2921 5.04372 10.2782 5.01631 10.2669C4.99975 10.2627 4.97913 10.2544 4.96256 10.2503C4.95019 10.2461 4.94194 10.2419 4.9295 10.2378C4.90063 10.2295 4.87169 10.2212 4.84275 10.2171C4.81455 10.2089 4.78536 10.2047 4.756 10.2046C4.72706 10.2005 4.694 10.1963 4.66506 10.1963C4.64444 10.1963 4.62381 10.2005 4.60306 10.2005C4.57006 10.2005 4.54112 10.2047 4.51219 10.213C4.48325 10.2171 4.45431 10.2212 4.42544 10.2295C4.3965 10.2378 4.36756 10.2461 4.33862 10.2586C4.30975 10.271 4.28488 10.2835 4.256 10.2959C4.23119 10.3083 4.20644 10.325 4.1775 10.3374C3.21475 10.968 3.78906 12.4447 4.44606 12.872C4.19813 12.9176 3.94606 12.9715 3.87587 13.0254L3.86762 13.0337C4.04525 13.1416 4.23119 13.2329 4.42544 13.3117C4.68987 13.3988 4.97087 13.4776 5.09481 13.5108V13.5149C5.43715 13.5854 5.78722 13.6105 6.13606 13.5896C7.96656 13.461 9.4665 12.0631 9.73919 10.2212C9.74744 10.2586 9.75575 10.2918 9.764 10.3291C9.77637 10.4038 9.79294 10.4826 9.80119 10.5614V10.5656C9.80944 10.6029 9.81356 10.6403 9.81775 10.6734V10.69C9.82187 10.7273 9.826 10.7647 9.826 10.7979C9.83012 10.8435 9.83425 10.8891 9.83425 10.9348V11.0011C9.83425 11.0219 9.83837 11.0468 9.83837 11.0675C9.83837 11.0924 9.83425 11.1173 9.83425 11.1421V11.2003C9.83425 11.2293 9.83012 11.2542 9.83012 11.2832C9.83012 11.2998 9.83012 11.3164 9.82594 11.3372C9.82594 11.3661 9.82181 11.3952 9.82181 11.4284C9.81769 11.4408 9.81769 11.4533 9.81769 11.4657C9.81356 11.4989 9.80944 11.528 9.80525 11.5611C9.80525 11.5736 9.80525 11.586 9.80112 11.5985C9.797 11.6399 9.78875 11.6773 9.78462 11.7188V11.7271C9.77637 11.7644 9.76806 11.8059 9.75981 11.8433V11.8557L9.735 11.9677C9.735 11.9718 9.73088 11.9801 9.73088 11.9843C9.72263 12.0216 9.71437 12.0589 9.70194 12.0963V12.1087C9.68956 12.1502 9.67719 12.1875 9.66894 12.2249C9.66475 12.229 9.66475 12.2332 9.66475 12.2332L9.62756 12.3576C9.61106 12.3991 9.59869 12.4365 9.58212 12.4779C9.56562 12.5193 9.55319 12.5609 9.53669 12.5982C9.52012 12.6397 9.50356 12.677 9.48712 12.7185H9.48294C9.46644 12.7558 9.44987 12.7973 9.42919 12.8346C9.42582 12.8446 9.42169 12.8543 9.41681 12.8637C9.41269 12.8679 9.41269 12.872 9.40856 12.8762C9.14 13.4195 8.74331 13.8966 8.2475 14.2699C8.21437 14.2906 8.18137 14.3156 8.14831 14.3405C8.14006 14.3487 8.12769 14.3529 8.11937 14.3612C8.09044 14.3819 8.06156 14.4027 8.0285 14.4234L8.04087 14.4483H8.045L8.21856 14.4234H8.22269C8.33019 14.4068 8.43756 14.3861 8.545 14.3654C8.57394 14.3612 8.607 14.3529 8.63587 14.3447C8.65656 14.3405 8.67306 14.3363 8.69375 14.3322C8.72269 14.328 8.75162 14.3197 8.7805 14.3155C8.80531 14.3073 8.83012 14.3031 8.85487 14.2948C9.26812 14.1953 9.66894 14.0584 10.0532 13.8966C9.39619 14.7967 8.51606 15.5227 7.48719 15.9997C7.96237 15.9666 8.43756 15.8877 8.89625 15.755C10.5614 15.2614 11.9622 14.1372 12.801 12.6231C12.6307 13.5836 12.2512 14.4944 11.6894 15.2904C12.0899 15.0252 12.4599 14.7164 12.7927 14.3695C13.7183 13.3988 14.3257 12.1668 14.5323 10.8435C14.6733 11.5 14.7137 12.1742 14.6521 12.843C17.6354 8.66566 14.9001 4.33493 13.7555 3.19416C13.7513 3.18588 13.7472 3.18174 13.7472 3.17346C13.7431 3.1776 13.7431 3.1776 13.7431 3.18174C13.7431 3.17754 13.7431 3.17754 13.7389 3.17346C13.7389 3.22322 13.7348 3.27297 13.7307 3.32279C13.7183 3.41816 13.7059 3.50946 13.6894 3.60075C13.6687 3.69198 13.6439 3.78322 13.6191 3.87451C13.5897 3.96431 13.5566 4.05285 13.5199 4.13992C13.482 4.2259 13.4406 4.31034 13.396 4.39304C13.3506 4.47184 13.301 4.55479 13.2472 4.62946C13.1941 4.7066 13.1376 4.78134 13.0779 4.85346C13.0158 4.92813 12.9498 4.99451 12.8836 5.06089C12.8447 5.09663 12.8048 5.1312 12.7638 5.16455C12.7307 5.1936 12.7018 5.21851 12.6687 5.24756C12.5944 5.3056 12.52 5.35956 12.4374 5.40932C12.3589 5.45907 12.2762 5.50889 12.1936 5.55037C12.1067 5.59184 12.02 5.62918 11.9332 5.66651C11.8452 5.69988 11.7556 5.72895 11.6647 5.7536C11.5733 5.77829 11.4809 5.79906 11.3878 5.81584C11.2928 5.83247 11.1978 5.84075 11.1069 5.84904C11.0407 5.85318 10.9746 5.85732 10.9085 5.85732C10.8135 5.85732 10.7184 5.84904 10.6276 5.84075C10.5325 5.83241 10.4374 5.81998 10.3466 5.79922C10.2516 5.78265 10.1606 5.7578 10.0697 5.72875H10.0656C10.1565 5.72041 10.2474 5.71213 10.3383 5.6955C10.4315 5.67917 10.5239 5.65842 10.6152 5.63332C10.706 5.60866 10.7956 5.5796 10.8837 5.54623C10.9746 5.51297 11.0614 5.47156 11.1441 5.43002C11.2308 5.38861 11.3093 5.34293 11.3919 5.29318C11.4704 5.23922 11.549 5.18525 11.6234 5.12722C11.6974 5.06944 11.7678 5.0071 11.8341 4.94055C11.9043 4.87831 11.9663 4.80784 12.0283 4.73725C12.0887 4.66462 12.1466 4.58991 12.2018 4.51325C12.2101 4.50083 12.2184 4.48427 12.2266 4.47184C12.2679 4.40546 12.3092 4.33907 12.3464 4.27269C12.3919 4.19044 12.4333 4.10599 12.4704 4.01964C12.5078 3.93284 12.5408 3.84426 12.5696 3.75423C12.5985 3.66701 12.6192 3.57578 12.6398 3.48455C12.6564 3.38918 12.6729 3.29788 12.6811 3.20659C12.6894 3.11122 12.6977 3.01584 12.6977 2.92455C12.6977 2.85816 12.6936 2.79178 12.6894 2.7254C12.6812 2.63002 12.6688 2.53873 12.6563 2.44744C12.6401 2.35387 12.6194 2.26114 12.5944 2.16954C12.5654 2.08245 12.5366 1.99115 12.5035 1.90406C12.4704 1.81697 12.4291 1.72982 12.3878 1.64687C12.3423 1.56392 12.2969 1.48091 12.2473 1.40216C12.1946 1.32441 12.1394 1.24831 12.082 1.17396C12.0198 1.10241 11.9564 1.03187 11.8919 0.962384C11.8571 0.926803 11.8213 0.892237 11.7845 0.858729C11.5994 0.71439 11.4077 0.578716 11.2101 0.452141C11.1834 0.436689 11.1558 0.42286 11.1275 0.410729C10.9912 0.323576 10.8631 0.277961 10.735 0.236486L10.7349 0.236424Z" fill="#E0234E"/>
</svg>
